<svg viewBox="0 0 1280 800" xmlns="http://www.w3.org/2000/svg">
  <rect width="1280" height="800" fill=""/>
  
  <g transform="">
    <!-- Card background with rounded corners -->
    <rect width="1280" height="800" rx="24" fill="url(#gradient1)"/>
    
    <!-- Gradient definitions -->
    <defs>
      <linearGradient id="gradient1" x1="0%" y1="0%" x2="0%" y2="100%">
        <stop offset="0%" style="stop-color:#2d8ca8;stop-opacity:1" />
        <stop offset="100%" style="stop-color:#1a5f7a;stop-opacity:1" />
      </linearGradient>
      <linearGradient id="gradient2" x1="0%" y1="0%" x2="0%" y2="100%">
        <stop offset="0%" style="stop-color:#52b2c9;stop-opacity:0.4" />
        <stop offset="100%" style="stop-color:#3a8ca0;stop-opacity:0.4" />
      </linearGradient>
      <linearGradient id="gradient3" x1="0%" y1="0%" x2="0%" y2="100%">
        <stop offset="0%" style="stop-color:#1e5a6e;stop-opacity:1" />
        <stop offset="100%" style="stop-color:#0f3d4d;stop-opacity:1" />
      </linearGradient>
    </defs>
    
    <!-- Header -->
    <g transform="translate(30, 30)">
      <!-- Logo/Icon -->
      <rect width="30" height="30" rx="6" fill="#7dd3e8"/>
      <text x="40" y="22" font-family="Arial, sans-serif" font-size="20" font-weight="bold" fill="white">Staark UI</text>
      
      <!-- Header buttons -->
      <rect x="650" y="5" width="50" height="8" rx="4" fill="url(#gradient2)"/>
      <rect x="710" y="5" width="50" height="8" rx="4" fill="url(#gradient2)"/>
      
      <!-- Menu dots -->
      <circle cx="730" cy="15" r="4" fill="white" opacity="0.7"/>
      <circle cx="745" cy="15" r="4" fill="white" opacity="0.7"/>
    </g>
    
    <!-- Secondary header bar -->
    <g transform="translate(30, 80)">
      <rect width="150" height="12" rx="6" fill="url(#gradient2)"/>
      <rect x="580" y="0" width="80" height="12" rx="6" fill="url(#gradient2)"/>
      <rect x="670" y="0" width="70" height="12" rx="6" fill="url(#gradient2)"/>
    </g>
    
    <!-- Content card -->
    <g transform="translate(30, 120)">
      <rect width="740" height="90" rx="12" fill="#a8d5e2" opacity="0.3"/>
      
      <!-- Content header -->
      <rect x="20" y="15" width="200" height="10" rx="5" fill="#85c5d8"/>
      <rect x="650" y="15" width="70" height="10" rx="5" fill="#85c5d8"/>
    </g>
    
    <!-- Two column layout -->
    <g transform="translate(30, 230)">
      <!-- Left column with dark background -->
      <rect width="360" height="140" rx="12" fill="url(#gradient3)"/>
      
      <!-- Left column items -->
      <circle cx="30" cy="35" r="12" fill="#4db8d1"/>
      <rect x="55" y="28" width="200" height="8" rx="4" fill="#4db8d1"/>
      <rect x="55" y="42" width="150" height="6" rx="3" fill="#3a8ca0"/>
      
      <circle cx="30" cy="85" r="12" fill="#4db8d1"/>
      <rect x="55" y="78" width="180" height="8" rx="4" fill="#4db8d1"/>
      <rect x="55" y="92" width="130" height="6" rx="3" fill="#3a8ca0"/>
      
      <!-- Right column with dark background -->
      <rect x="380" width="360" height="140" rx="12" fill="url(#gradient3)"/>
      
      <!-- Right column items -->
      <circle cx="410" cy="35" r="12" fill="#4db8d1"/>
      <rect x="435" y="28" width="200" height="8" rx="4" fill="#4db8d1"/>
      <rect x="435" y="42" width="160" height="6" rx="3" fill="#3a8ca0"/>
      
      <circle cx="410" cy="85" r="12" fill="#4db8d1"/>
      <rect x="435" y="78" width="190" height="8" rx="4" fill="#4db8d1"/>
      <rect x="435" y="92" width="140" height="6" rx="3" fill="#3a8ca0"/>
    </g>
  </g>
</svg>
