<svg viewBox="0 0 1280 800" xmlns="http://www.w3.org/2000/svg">
  <!-- Background -->
  <rect width="1280" height="800" fill="#f5f7f9"/>
  
  <!-- Top navigation bar -->
  <rect width="1280" height="60" fill="#2b4255"/>
  
  <!-- Logo area -->
  <text x="80" y="38" font-family="Arial, sans-serif" font-size="24" font-weight="bold" fill="#ffffff">Forum</text>
  
  <!-- Navigation items -->
  <rect x="200" y="20" width="70" height="20" rx="3" fill="#3a5a73"/>
  <text x="235" y="35" font-family="Arial, sans-serif" font-size="13" fill="#ffffff" text-anchor="middle">Home</text>
  
  <rect x="285" y="20" width="80" height="20" rx="3" fill="#3a5a73"/>
  <text x="325" y="35" font-family="Arial, sans-serif" font-size="13" fill="#ffffff" text-anchor="middle">Forums</text>
  
  <rect x="380" y="20" width="90" height="20" rx="3" fill="#3a5a73"/>
  <text x="425" y="35" font-family="Arial, sans-serif" font-size="13" fill="#ffffff" text-anchor="middle">Members</text>
  
  <!-- Search bar -->
  <rect x="1050" y="18" width="150" height="24" rx="4" fill="#3a5a73"/>
  <text x="1065" y="35" font-family="Arial, sans-serif" font-size="12" fill="#8fa9bc">Search...</text>
  
  <!-- User menu -->
  <circle cx="960" cy="30" r="16" fill="#4a6a83"/>
  <rect x="990" y="22" width="40" height="16" rx="3" fill="#3a5a73"/>
  
  <!-- Breadcrumb -->
  <g transform="translate(80, 80)">
    <text x="0" y="15" font-family="Arial, sans-serif" font-size="13" fill="#6a7d8f">Home</text>
    <text x="50" y="15" font-family="Arial, sans-serif" font-size="13" fill="#6a7d8f">›</text>
    <text x="65" y="15" font-family="Arial, sans-serif" font-size="13" fill="#2b4255">Forums</text>
  </g>
  
  <!-- Main content area -->
  <g transform="translate(80, 120)">
    <!-- Forum category header -->
    <rect width="1120" height="45" rx="4" fill="#e8f0f5"/>
    <text x="20" y="28" font-family="Arial, sans-serif" font-size="16" font-weight="bold" fill="#2b4255">General Discussion</text>
    
    <!-- Forum threads list -->
    <g transform="translate(0, 55)">
      <!-- Thread 1 -->
      <rect width="1120" height="80" fill="#ffffff"/>
      <rect width="1120" height="1" y="80" fill="#dde4ea"/>
      
      <circle cx="30" cy="40" r="20" fill="#4a9eff"/>
      <text x="30" y="47" font-family="Arial, sans-serif" font-size="16" font-weight="bold" fill="#ffffff" text-anchor="middle">A</text>
      
      <text x="70" y="28" font-family="Arial, sans-serif" font-size="15" font-weight="600" fill="#2b4255">Welcome to the forum community</text>
      <text x="70" y="50" font-family="Arial, sans-serif" font-size="12" fill="#7a8a9a">Started by Admin • 2 hours ago</text>
      
      <rect x="950" y="20" width="150" height="40" rx="4" fill="#f8fafc"/>
      <text x="970" y="38" font-family="Arial, sans-serif" font-size="13" fill="#5a6a7a">Replies: 24</text>
      <text x="970" y="54" font-family="Arial, sans-serif" font-size="12" fill="#8a9aaa">Views: 1.2K</text>
      
      <!-- Thread 2 -->
      <g transform="translate(0, 81)">
        <rect width="1120" height="80" fill="#ffffff"/>
        <rect width="1120" height="1" y="80" fill="#dde4ea"/>
        
        <circle cx="30" cy="40" r="20" fill="#ff9a4a"/>
        <text x="30" y="47" font-family="Arial, sans-serif" font-size="16" font-weight="bold" fill="#ffffff" text-anchor="middle">B</text>
        
        <text x="70" y="28" font-family="Arial, sans-serif" font-size="15" font-weight="600" fill="#2b4255">How to get started with XenForo</text>
        <text x="70" y="50" font-family="Arial, sans-serif" font-size="12" fill="#7a8a9a">Started by User123 • 5 hours ago</text>
        
        <rect x="950" y="20" width="150" height="40" rx="4" fill="#f8fafc"/>
        <text x="970" y="38" font-family="Arial, sans-serif" font-size="13" fill="#5a6a7a">Replies: 12</text>
        <text x="970" y="54" font-family="Arial, sans-serif" font-size="12" fill="#8a9aaa">Views: 856</text>
      </g>
      
      <!-- Thread 3 -->
      <g transform="translate(0, 162)">
        <rect width="1120" height="80" fill="#ffffff"/>
        <rect width="1120" height="1" y="80" fill="#dde4ea"/>
        
        <circle cx="30" cy="40" r="20" fill="#a64aff"/>
        <text x="30" y="47" font-family="Arial, sans-serif" font-size="16" font-weight="bold" fill="#ffffff" text-anchor="middle">C</text>
        
        <text x="70" y="28" font-family="Arial, sans-serif" font-size="15" font-weight="600" fill="#2b4255">Feature requests and suggestions</text>
        <text x="70" y="50" font-family="Arial, sans-serif" font-size="12" fill="#7a8a9a">Started by Moderator • Yesterday</text>
        
        <rect x="950" y="20" width="150" height="40" rx="4" fill="#f8fafc"/>
        <text x="970" y="38" font-family="Arial, sans-serif" font-size="13" fill="#5a6a7a">Replies: 45</text>
        <text x="970" y="54" font-family="Arial, sans-serif" font-size="12" fill="#8a9aaa">Views: 2.3K</text>
      </g>
      
      <!-- Thread 4 -->
      <g transform="translate(0, 243)">
        <rect width="1120" height="80" fill="#ffffff"/>
        <rect width="1120" height="1" y="80" fill="#dde4ea"/>
        
        <circle cx="30" cy="40" r="20" fill="#4aff9a"/>
        <text x="30" y="47" font-family="Arial, sans-serif" font-size="16" font-weight="bold" fill="#ffffff" text-anchor="middle">D</text>
        
        <text x="70" y="28" font-family="Arial, sans-serif" font-size="15" font-weight="600" fill="#2b4255">Technical support and help</text>
        <text x="70" y="50" font-family="Arial, sans-serif" font-size="12" fill="#7a8a9a">Started by Helper • 3 days ago</text>
        
        <rect x="950" y="20" width="150" height="40" rx="4" fill="#f8fafc"/>
        <text x="970" y="38" font-family="Arial, sans-serif" font-size="13" fill="#5a6a7a">Replies: 8</text>
        <text x="970" y="54" font-family="Arial, sans-serif" font-size="12" fill="#8a9aaa">Views: 432</text>
      </g>
      
      <!-- Thread 5 -->
      <g transform="translate(0, 324)">
        <rect width="1120" height="80" fill="#ffffff"/>
        <rect width="1120" height="1" y="80" fill="#dde4ea"/>
        
        <circle cx="30" cy="40" r="20" fill="#ff4a6a"/>
        <text x="30" y="47" font-family="Arial, sans-serif" font-size="16" font-weight="bold" fill="#ffffff" text-anchor="middle">E</text>
        
        <text x="70" y="28" font-family="Arial, sans-serif" font-size="15" font-weight="600" fill="#2b4255">Off-topic discussions</text>
        <text x="70" y="50" font-family="Arial, sans-serif" font-size="12" fill="#7a8a9a">Started by Member • Last week</text>
        
        <rect x="950" y="20" width="150" height="40" rx="4" fill="#f8fafc"/>
        <text x="970" y="38" font-family="Arial, sans-serif" font-size="13" fill="#5a6a7a">Replies: 67</text>
        <text x="970" y="54" font-family="Arial, sans-serif" font-size="12" fill="#8a9aaa">Views: 3.8K</text>
      </g>
    </g>
  </g>
  
  <!-- Footer -->
  <rect y="740" width="1280" height="60" fill="#2b4255"/>
  <text x="640" y="775" font-family="Arial, sans-serif" font-size="12" fill="#8fa9bc" text-anchor="middle">© 2024 Forum Community • Privacy • Terms • Help</text>
</svg>
